<?xml version="1.0" encoding="utf-8"?>
<!-- Generator: Adobe Illustrator 21.0.2, SVG Export Plug-In . SVG Version: 6.00 Build 0)  -->
<svg version="1.1" id="Capa_1" xmlns="http://www.w3.org/2000/svg" xmlns:xlink="http://www.w3.org/1999/xlink" x="0px" y="0px"
	 viewBox="0 0 426.6 427.9" style="enable-background:new 0 0 426.6 427.9;" xml:space="preserve">
<style type="text/css">
	.st0{fill:none;}
	.st1{fill:#486089;}
	.st2{fill:#52AC62;}
	.st3{fill:none;stroke:#FFFFFF;stroke-width:2.339;stroke-linecap:round;stroke-linejoin:round;stroke-miterlimit:10;}
	.st4{opacity:0.7;fill:#EFEEEF;}
	.st5{fill:#40664E;}
	.st6{fill:#40664E;stroke:#FFFFFF;stroke-width:2.339;stroke-linecap:round;stroke-linejoin:round;stroke-miterlimit:10;}
	.st7{fill:#518C5C;}
	.st8{fill:#4A7854;}
	.st9{fill:#6F93CD;}
	.st10{fill:#F5CC60;}
	.st11{fill:#373852;}
	.st12{opacity:0.8;fill:#FFFFFF;}
	.st13{fill:none;stroke:#646790;stroke-width:2.4894;stroke-linecap:round;stroke-linejoin:round;stroke-miterlimit:10;}
	.st14{fill:none;stroke:#646790;stroke-width:2.3367;stroke-linecap:round;stroke-linejoin:round;stroke-miterlimit:10;}
	.st15{fill:#FFFFFF;}
	.st16{fill:#DEF0FA;}
	.st17{fill:#E08DB9;}
	.st18{fill:#F2D2E4;}
	.st19{fill:#EEBC6E;}
	.st20{fill:#7C9CD2;}
	.st21{fill:#C1D6E9;}
	.st22{fill:#FAE3AE;}
</style>
<rect x="0" y="0" class="st0" width="426.6" height="427.9"/>
<ellipse class="st1" cx="217.9" cy="366.7" rx="165.9" ry="20.7"/>
<path class="st2" d="M170,127.2c-17.2-34-62.5-50.5-62.5-50.5s-14.2,47.7,3,81.7c17.2,34,42.2,44.8,56.6,37.5
	C180.8,188.9,187.3,161.2,170,127.2z"/>
<g>
	<g>
		<line class="st3" x1="114.2" y1="89.9" x2="163.1" y2="186.2"/>
		<line class="st3" x1="159.1" y1="177.9" x2="166.1" y2="162.5"/>
		<line class="st3" x1="148" y1="156.5" x2="157.7" y2="133.4"/>
		<line class="st3" x1="136.2" y1="133.1" x2="143.2" y2="118.2"/>
		<line class="st3" x1="125.4" y1="111.4" x2="132.1" y2="95.9"/>
		<line class="st3" x1="161.7" y1="184" x2="145.1" y2="180.7"/>
		<line class="st3" x1="150.9" y1="162.4" x2="126.5" y2="156.6"/>
		<line class="st3" x1="139" y1="139.2" x2="122.8" y2="136"/>
		<line class="st3" x1="127.8" y1="117.6" x2="111.4" y2="113.8"/>
	</g>
</g>
<path class="st4" d="M109.4,94.6c5.3-1.9,4.7,15.2,13.1,33c6.4,13.5,17.7,23.3,14.8,26.4c-5.9,6.3-17.3,0.2-26.5-18
	C101.5,117.8,105.6,96,109.4,94.6z"/>
<path class="st5" d="M95.8,224.3C58.2,218.2,28.7,180,28.7,180s41.1-28,78.8-21.9c37.7,6.1,55.5,26.7,52.9,42.5
	C157.9,215.8,133.5,230.4,95.8,224.3z"/>
<g>
	<g>
		<line class="st6" x1="43.4" y1="182.3" x2="149.9" y2="199.7"/>
		<line class="st6" x1="140.9" y1="198.5" x2="128.3" y2="209.8"/>
		<line class="st6" x1="117" y1="194.4" x2="98" y2="210.6"/>
		<line class="st6" x1="91.2" y1="190.3" x2="79.1" y2="201.4"/>
		<line class="st6" x1="67.3" y1="186.5" x2="54.5" y2="197.6"/>
		<line class="st6" x1="147.5" y1="199" x2="139.2" y2="184.3"/>
		<line class="st6" x1="123.6" y1="195.3" x2="110.7" y2="173.9"/>
		<line class="st6" x1="97.8" y1="191" x2="89.9" y2="176.6"/>
		<line class="st6" x1="73.9" y1="186.9" x2="65.3" y2="172.4"/>
	</g>
</g>
<path class="st4" d="M46.4,176.3c-0.2,5.7,15.9-0.2,35.4,2.5c14.8,2,27.6,9.9,29.6,6.1c4.2-7.5-5-16.6-25.2-19.8
	C66.1,161.8,46.6,172.4,46.4,176.3z"/>
<path class="st7" d="M240.5,115.3c17.2-34,62.5-50.5,62.5-50.5s14.2,47.7-3,81.7c-17.2,34-42.2,44.8-56.6,37.5
	C229.7,177,223.2,149.3,240.5,115.3z"/>
<g>
	<g>
		<line class="st3" x1="296.3" y1="78" x2="247.4" y2="174.3"/>
		<line class="st3" x1="251.4" y1="166" x2="244.3" y2="150.6"/>
		<line class="st3" x1="262.5" y1="144.5" x2="252.8" y2="121.5"/>
		<line class="st3" x1="274.3" y1="121.2" x2="267.3" y2="106.3"/>
		<line class="st3" x1="285.1" y1="99.5" x2="278.4" y2="84"/>
		<line class="st3" x1="248.8" y1="172.1" x2="265.4" y2="168.7"/>
		<line class="st3" x1="259.6" y1="150.5" x2="284" y2="144.7"/>
		<line class="st3" x1="271.5" y1="127.2" x2="287.7" y2="124.1"/>
		<line class="st3" x1="282.7" y1="105.7" x2="299.1" y2="101.9"/>
	</g>
</g>
<path class="st4" d="M301.1,82.7c-5.3-1.9-4.7,15.2-13.1,33c-6.4,13.5-17.7,23.3-14.8,26.4c5.9,6.3,17.3,0.2,26.5-18
	C309,105.9,304.8,84.1,301.1,82.7z"/>
<path class="st8" d="M314.7,212.3c37.7-6.1,67.1-44.2,67.1-44.2s-41.1-28-78.8-21.9c-37.7,6.1-55.5,26.7-52.9,42.5
	C252.6,203.9,277,218.4,314.7,212.3z"/>
<g>
	<g>
		<line class="st3" x1="367.1" y1="170.4" x2="260.6" y2="187.8"/>
		<line class="st3" x1="269.6" y1="186.5" x2="282.2" y2="197.9"/>
		<line class="st3" x1="293.5" y1="182.4" x2="312.5" y2="198.7"/>
		<line class="st3" x1="319.3" y1="178.3" x2="331.4" y2="189.5"/>
		<line class="st3" x1="343.2" y1="174.6" x2="356" y2="185.7"/>
		<line class="st3" x1="263" y1="187.1" x2="271.3" y2="172.3"/>
		<line class="st3" x1="286.9" y1="183.4" x2="299.8" y2="162"/>
		<line class="st3" x1="312.7" y1="179.1" x2="320.6" y2="164.7"/>
		<line class="st3" x1="336.6" y1="175" x2="345.2" y2="160.5"/>
	</g>
</g>
<path class="st4" d="M364.1,164.4c0.2,5.7-15.9-0.2-35.4,2.5c-14.8,2-27.6,9.9-29.6,6.1c-4.2-7.5,5-16.6,25.2-19.8
	C344.4,149.9,363.9,160.4,364.1,164.4z"/>
<g>
	<path class="st9" d="M242.6,215c34.7-28.5,42.3-59,43.1-82.7H126.2c0.5,23.6,7.3,49.9,40.6,82c10.2,9.8,12.5,32.6,0.6,44
		c-33.4,32.2-40.1,58.5-40.6,82.1h159.5c-0.4-22.2-4.4-41.9-40.7-79.6C233.3,248,232.3,223.5,242.6,215z"/>
	<path class="st10" d="M227.8,215.9c17.2-15.2,26.3-34.7,30.5-50.8c0,0-11.6-12.2-40.9-3.7c-46.9,13.6-63.7,3.7-63.7,3.7
		c3.9,14.9,12.2,31.7,28.1,48.9c8.2,8.8,9.7,36.5,0.8,47.5c-26.4,32.8-32.3,55.4-32.6,79h113.2c-0.3-22.2-7.6-43.1-34.6-78.5
		C219.2,249.7,219.6,223.2,227.8,215.9z"/>
	<rect x="120.5" y="333.1" class="st11" width="169" height="13.5"/>
	<rect x="112.9" y="345.4" class="st11" width="184.4" height="19.8"/>
	<g>
		<rect x="120.5" y="128.8" class="st11" width="169" height="13.5"/>
		<rect x="112.9" y="110.1" class="st11" width="184.4" height="19.8"/>
	</g>
	<path class="st12" d="M142.6,155.3c0,0,5.5,25.2,46.4,19.7c31.5-4.3,31.7-15.5,24.7-22C202.1,142.2,155.8,163.1,142.6,155.3z"/>
</g>
<g>
	<path class="st10" d="M80.2,334.3h53.5c1.1-20.3,6.3-32.3,10.5-38.2c5.7-8,14.2-23.9,14.2-36c0-28.8-22.9-52.1-51.2-52.1
		c-28.3,0-51,23.3-51.2,52.1c-0.1,14.7,4.8,23.4,10.3,31.4C80.2,312.3,80.6,328.6,80.2,334.3z"/>
	<path class="st13" d="M101.3,331.8c-2.1-18-10.8-56.6-10.8-56.6"/>
	<path class="st13" d="M113.3,331.6c2.1-18.1,11.8-56.6,11.8-56.6"/>
	<polyline class="st14" points="90.7,266.6 95.1,254.5 98.8,275.6 101.4,259.8 105.8,273.2 110.7,256.3 117.3,277.1 122.8,259.8 
		123.6,266.6 	"/>
	<rect x="75.7" y="329.3" class="st15" width="62.9" height="14"/>
	<rect x="78.2" y="342.9" class="st15" width="57.9" height="12.5"/>
	<rect x="81.5" y="354.4" class="st15" width="51.2" height="11"/>
	<path class="st12" d="M68.4,260.9c0,0-11.3-13.2,8.3-33c15.1-15.2,21.3-10.8,21.9-4.3C99.8,234.3,69.6,250.7,68.4,260.9z"/>
</g>
<g>
	<rect x="256.7" y="267.9" class="st16" width="119.4" height="97.5"/>
	<rect x="256.7" y="360.7" class="st16" width="119.4" height="4.7"/>
	<rect x="256.7" y="267.9" class="st17" width="119.4" height="29.2"/>
	<rect x="256.7" y="291.4" class="st18" width="119.4" height="5.7"/>
	<g>
		<g>
			<g>
				<path class="st19" d="M269.1,271.5c-1.8-0.1-3.2-1.5-3.2-3.3c0-1.8,1.5-3.3,3.3-3.3c1.7,0,3.2,1.5,3.3,3.3h2.1
					c-0.1-2.9-2.6-5.3-5.4-5.3c-3,0-5.4,2.4-5.4,5.4c0,2.9,2.3,5.2,5.1,5.4h0c0.6,0,1-0.4,1-1C270.1,272,269.7,271.5,269.1,271.5z"
					/>
			</g>
		</g>
		<g>
			<g>
				<path class="st19" d="M281.3,271.5c-1.8-0.1-3.2-1.5-3.2-3.3c0-1.8,1.5-3.3,3.3-3.3c1.7,0,3.2,1.5,3.3,3.3h2.1
					c-0.1-2.9-2.6-5.3-5.4-5.3c-3,0-5.4,2.4-5.4,5.4c0,2.9,2.3,5.2,5.1,5.4c0,0,0,0,0,0c0.6,0,1-0.4,1-1
					C282.3,272,281.8,271.5,281.3,271.5z"/>
			</g>
		</g>
		<g>
			<g>
				<path class="st19" d="M293.4,271.5c-1.8-0.1-3.2-1.5-3.2-3.3c0-1.8,1.5-3.3,3.3-3.3c1.7,0,3.2,1.5,3.3,3.3h2.1
					c-0.1-2.9-2.6-5.3-5.4-5.3c-3,0-5.4,2.4-5.4,5.4c0,2.9,2.3,5.2,5.1,5.4c0,0,0,0,0,0c0.5,0,1-0.4,1-1
					C294.4,272,294,271.5,293.4,271.5z"/>
			</g>
		</g>
	</g>
	<g>
		<g>
			<g>
				<path class="st19" d="M363.3,271.5c1.8-0.1,3.2-1.5,3.2-3.3c0-1.8-1.5-3.3-3.3-3.3c-1.7,0-3.2,1.5-3.3,3.3h-2.1
					c0.1-2.9,2.6-5.3,5.4-5.3c3,0,5.4,2.4,5.4,5.4c0,2.9-2.3,5.2-5.1,5.4c0,0,0,0,0,0c-0.5,0-1-0.4-1-1
					C362.3,272,362.8,271.6,363.3,271.5z"/>
			</g>
		</g>
		<g>
			<g>
				<path class="st19" d="M351.2,271.5c1.8-0.1,3.2-1.5,3.2-3.3c0-1.8-1.5-3.3-3.3-3.3c-1.7,0-3.2,1.5-3.3,3.3h-2.1
					c0.1-2.9,2.6-5.3,5.4-5.3c3,0,5.4,2.4,5.4,5.4c0,2.9-2.3,5.2-5.1,5.4c0,0,0,0,0,0c-0.6,0-1-0.4-1-1
					C350.2,272,350.6,271.6,351.2,271.5z"/>
			</g>
		</g>
		<g>
			<g>
				<path class="st19" d="M339,271.5c1.8-0.1,3.2-1.5,3.2-3.3c0-1.8-1.5-3.3-3.3-3.3c-1.7,0-3.2,1.5-3.3,3.3h-2.1
					c0.1-2.9,2.6-5.3,5.4-5.3c3,0,5.4,2.4,5.4,5.4c0,2.9-2.3,5.2-5.1,5.4c0,0,0,0,0,0c-0.5,0-1-0.4-1-1
					C338,272,338.4,271.6,339,271.5z"/>
			</g>
		</g>
	</g>
	<g>
		<rect x="264.3" y="307.2" class="st20" width="12.1" height="10.7"/>
		<rect x="282.4" y="307.2" class="st20" width="12.1" height="10.7"/>
		<rect x="300.5" y="307.2" class="st20" width="12.1" height="10.7"/>
		<rect x="318.5" y="307.2" class="st20" width="12.1" height="10.7"/>
		<rect x="336.6" y="307.2" class="st20" width="12.1" height="10.7"/>
		<rect x="354.7" y="307.2" class="st20" width="12.1" height="10.7"/>
	</g>
	<g>
		<rect x="264.3" y="325.3" class="st20" width="12.1" height="10.7"/>
		<rect x="282.4" y="325.3" class="st20" width="12.1" height="10.7"/>
		<rect x="300.5" y="325.3" class="st20" width="12.1" height="10.7"/>
		<rect x="318.5" y="325.3" class="st20" width="12.1" height="10.7"/>
		<rect x="336.6" y="325.3" class="st20" width="12.1" height="10.7"/>
		<rect x="354.7" y="325.3" class="st20" width="12.1" height="10.7"/>
	</g>
	<g>
		<g>
			<rect x="264.3" y="344.1" class="st10" width="12.1" height="10.7"/>
			<rect x="282.3" y="344.1" class="st10" width="12.1" height="10.7"/>
			<rect x="300.4" y="344.1" class="st10" width="12.1" height="10.7"/>
			<rect x="318.5" y="344.1" class="st10" width="12.1" height="10.7"/>
			<rect x="336.6" y="344.1" class="st10" width="12.1" height="10.7"/>
			<rect x="354.6" y="344.1" class="st10" width="12.1" height="10.7"/>
		</g>
	</g>
	<g>
		<rect x="264.3" y="307.2" class="st21" width="5.6" height="10.7"/>
		<rect x="282.4" y="307.2" class="st21" width="5.5" height="10.7"/>
		<rect x="300.5" y="307.2" class="st21" width="5.6" height="10.7"/>
		<rect x="318.5" y="307.2" class="st21" width="5.8" height="10.7"/>
		<rect x="336.6" y="307.2" class="st21" width="5.8" height="10.7"/>
		<rect x="354.7" y="307.2" class="st21" width="6" height="10.7"/>
	</g>
	<g>
		<rect x="264.3" y="325.3" class="st21" width="5.6" height="10.7"/>
		<rect x="282.4" y="325.3" class="st21" width="5.5" height="10.7"/>
		<rect x="300.5" y="325.3" class="st21" width="5.6" height="10.7"/>
		<rect x="318.5" y="325.3" class="st21" width="5.8" height="10.7"/>
		<rect x="336.6" y="325.3" class="st21" width="5.8" height="10.7"/>
		<rect x="354.7" y="325.3" class="st21" width="6" height="10.7"/>
	</g>
	<g>
		<g>
			<rect x="264.3" y="344.1" class="st22" width="5.7" height="10.7"/>
			<rect x="282.3" y="344.1" class="st22" width="5.5" height="10.7"/>
			<rect x="300.4" y="344.1" class="st22" width="5.7" height="10.7"/>
			<rect x="318.5" y="344.1" class="st22" width="5.9" height="10.7"/>
			<rect x="336.6" y="344.1" class="st22" width="5.8" height="10.7"/>
			<rect x="354.6" y="344.1" class="st22" width="6" height="10.7"/>
		</g>
	</g>
</g>
</svg>
